<svg width="24" height="24" viewBox="0 0 24 24" fill="none" xmlns="http://www.w3.org/2000/svg">
<g opacity="0.8">
<rect x="1" y="1" width="22" height="22" rx="11" stroke="black" stroke-width="2"/>
<path d="M16.1657 12.6343C16.3157 12.7843 16.3999 12.9878 16.3999 13.1999C16.3999 13.412 16.3157 13.6155 16.1657 13.7655L12.5657 17.3655C12.4157 17.5155 12.2122 17.5997 12.0001 17.5997C11.7879 17.5997 11.5845 17.5155 11.4345 17.3655L7.83447 13.7655C7.68875 13.6146 7.60811 13.4125 7.60993 13.2028C7.61176 12.993 7.69589 12.7924 7.84422 12.644C7.99255 12.4957 8.1932 12.4116 8.40295 12.4098C8.61271 12.4079 8.81479 12.4886 8.96567 12.6343L11.2001 14.7999V7.1999C11.2001 6.98773 11.2844 6.78425 11.4344 6.63422C11.5844 6.48419 11.7879 6.3999 12.0001 6.3999C12.2122 6.3999 12.4157 6.48419 12.5658 6.63422C12.7158 6.78425 12.8001 6.98773 12.8001 7.1999V14.7999L15.0345 12.6343C15.1845 12.4843 15.3879 12.4001 15.6001 12.4001C15.8122 12.4001 16.0157 12.4843 16.1657 12.6343Z" fill="black"/>
</g>
</svg>
