<svg width="39" height="39" viewBox="0 0 39 39" fill="none" xmlns="http://www.w3.org/2000/svg">
<g opacity="0.2">
<path fill-rule="evenodd" clip-rule="evenodd" d="M20 1C20.2145 0.999662 20.4234 1.0683 20.5959 1.19579C20.7684 1.32328 20.8954 1.50285 20.958 1.708L24.814 14.374L36.344 18.588C36.5341 18.6577 36.6986 18.7834 36.8158 18.9486C36.9329 19.1137 36.9971 19.3106 36.9999 19.5131C37.0027 19.7155 36.944 19.9141 36.8315 20.0824C36.7191 20.2508 36.5581 20.3811 36.37 20.456L24.916 25.006L20.958 38.286C20.8963 38.4921 20.7698 38.6729 20.5972 38.8013C20.4246 38.9298 20.2152 38.9992 20 38.9992C19.7848 38.9992 19.5754 38.9298 19.4028 38.8013C19.2302 38.6729 19.1037 38.4921 19.042 38.286L15.084 25.006L3.63 20.456C3.44188 20.3811 3.28094 20.2508 3.16847 20.0824C3.05599 19.9141 2.99728 19.7155 3.0001 19.5131C3.00291 19.3106 3.06713 19.1137 3.18425 18.9486C3.30137 18.7834 3.46587 18.6577 3.656 18.588L15.186 14.374L19.044 1.708C19.1065 1.50318 19.2332 1.32384 19.4053 1.19638C19.5774 1.06893 19.7858 1.00009 20 1Z" fill="black"/>
<path d="M33.6599 38.9C33.4399 38.9 33.2599 38.74 33.2399 38.54C32.8399 34.54 32.5399 33.26 28.7799 32.92C28.6753 32.9109 28.5779 32.8626 28.5074 32.7847C28.4369 32.7067 28.3985 32.6051 28.3999 32.5C28.3999 32.28 28.5599 32.1 28.7799 32.08C32.5799 31.72 32.8399 30.68 33.2399 26.78C33.2599 26.56 33.4399 26.4 33.6599 26.4C33.8799 26.4 34.0599 26.56 34.0799 26.76C34.4799 30.68 34.7399 31.72 38.5399 32.06C38.7599 32.08 38.9199 32.26 38.9199 32.48C38.9199 32.7 38.7599 32.88 38.5399 32.9C34.7999 33.26 34.4799 34.54 34.0999 38.52C34.0799 38.74 33.8999 38.9 33.6799 38.9H33.6599Z" fill="black"/>
</g>
<path fill-rule="evenodd" clip-rule="evenodd" d="M17 1.25104e-06C17.2145 -0.000337936 17.4234 0.0683026 17.5959 0.195789C17.7684 0.323275 17.8954 0.50285 17.958 0.708001L21.814 13.374L33.344 17.588C33.5341 17.6577 33.6986 17.7834 33.8158 17.9486C33.9329 18.1137 33.9971 18.3106 33.9999 18.5131C34.0027 18.7155 33.944 18.9141 33.8315 19.0824C33.7191 19.2508 33.5581 19.3811 33.37 19.456L21.916 24.006L17.958 37.286C17.8963 37.4921 17.7698 37.6729 17.5972 37.8013C17.4246 37.9298 17.2152 37.9992 17 37.9992C16.7848 37.9992 16.5754 37.9298 16.4028 37.8013C16.2302 37.6729 16.1037 37.4921 16.042 37.286L12.084 24.006L0.629998 19.456C0.441882 19.3811 0.280942 19.2508 0.168467 19.0824C0.0559908 18.9141 -0.00272116 18.7155 9.68929e-05 18.5131C0.00291495 18.3106 0.0671302 18.1137 0.184249 17.9486C0.301367 17.7834 0.46587 17.6577 0.655998 17.588L12.186 13.374L16.044 0.708001C16.1065 0.503177 16.2332 0.323839 16.4053 0.196384C16.5774 0.0689294 16.7858 9.08426e-05 17 1.25104e-06ZM17 4.432L13.954 14.432C13.9088 14.5802 13.8299 14.7159 13.7233 14.8283C13.6168 14.9408 13.4855 15.0269 13.34 15.08L3.806 18.568L13.274 22.328C13.4143 22.384 13.5401 22.471 13.6419 22.5825C13.7437 22.6941 13.819 22.8272 13.862 22.972L17.002 33.5L20.138 22.972C20.181 22.8272 20.2563 22.6941 20.3581 22.5825C20.4599 22.471 20.5857 22.384 20.726 22.328L30.194 18.568L20.66 15.084C20.5145 15.0309 20.3832 14.9448 20.2767 14.8323C20.1701 14.7199 20.0912 14.5842 20.046 14.436L17 4.432Z" fill="black"/>
<path d="M32.5 37.24C32.3 37.24 32.12 37.08 32.1 36.88C31.74 33.24 31.46 32.08 28.12 31.76C27.92 31.74 27.76 31.56 27.76 31.36C27.76 31.16 27.92 30.98 28.12 30.96C31.54 30.64 31.74 29.76 32.1 26.12C32.1 25.92 32.3 25.76 32.5 25.76C32.7 25.76 32.88 25.92 32.9 26.12C33.26 29.76 33.48 30.64 36.88 30.96C37.08 30.98 37.24 31.16 37.24 31.36C37.24 31.56 37.08 31.74 36.88 31.76C33.52 32.08 33.26 33.24 32.9 36.9C32.9 37.1 32.72 37.26 32.5 37.26V37.24Z" fill="black"/>
</svg>
